<svg width="251" height="59" viewBox="0 0 251 59" fill="none" xmlns="http://www.w3.org/2000/svg">
<path d="M35.9668 12.6317L39.2805 14.7028L39.3502 14.5912L39.4123 14.4752L35.9668 12.6317ZM34.7163 14.0385L32.4628 10.846L32.4168 10.8785L32.3717 10.9123L34.7163 14.0385ZM31.1212 13.9603L29.1685 17.3451L29.2445 17.389L29.3224 17.4294L31.1212 13.9603ZM28.7766 12.6708L26.9054 16.1013L26.9268 16.113L26.9483 16.1243L28.7766 12.6708ZM25.8068 11.4203L24.5197 15.11L24.5582 15.1234L24.597 15.136L25.8068 11.4203ZM16.4283 12.4363L18.9925 15.3851L18.9971 15.381L16.4283 12.4363ZM15.7249 19.5483L18.5361 16.834L18.5361 16.834L15.7249 19.5483ZM18.5775 21.5022L16.925 25.0432L16.9398 25.0501L16.9547 25.0569L18.5775 21.5022ZM22.6415 23.0262L21.4833 26.7582L21.5213 26.7701L21.5596 26.7811L22.6415 23.0262ZM27.3308 24.5502L26.005 28.2261L26.0318 28.2357L26.0588 28.245L27.3308 24.5502ZM31.9809 26.504L30.2334 29.9991L30.2452 30.0051L30.2572 30.011L31.9809 26.504ZM36.0449 29.3957L33.2818 32.1588L33.297 32.174L33.3123 32.189L36.0449 29.3957ZM38.9366 33.6942L35.3477 35.2401L35.3521 35.2503L35.3566 35.2604L38.9366 33.6942ZM38.6631 47.1366L42.2941 48.5808L38.6631 47.1366ZM34.6772 53.1545L37.4192 55.9386L37.4195 55.9383L34.6772 53.1545ZM28.2686 57.1794L29.6613 60.8305L29.6713 60.8267L29.6814 60.8228L28.2686 57.1794ZM14.2009 58.0782L13.4346 61.91L13.4449 61.912L14.2009 58.0782ZM8.88646 56.5542L7.4542 60.1899L7.47816 60.1993L7.50225 60.2085L8.88646 56.5542ZM4.04092 54.1705L6.05989 50.8247H6.05989L4.04092 54.1705ZM0.0941539 51.1225L-3.20777 49.0326L-4.87994 51.6747L-2.669 53.8856L0.0941539 51.1225ZM4.00185 44.9483L0.809387 42.6948L0.752593 42.7753L0.699924 42.8585L4.00185 44.9483ZM5.21323 43.8542L7.17113 47.236L7.19755 47.2207L7.22372 47.205L5.21323 43.8542ZM9.23815 44.1277L7.14734 47.429L7.17163 47.4444L7.19614 47.4594L9.23815 44.1277ZM11.9345 45.7689L9.91105 49.112L9.93017 49.1235L9.94941 49.1349L11.9345 45.7689ZM15.4123 47.4102L16.8004 43.7573H16.8004L15.4123 47.4102ZM25.6114 46.5895L28.023 49.6643L28.0415 49.6498L28.0598 49.6351L25.6114 46.5895ZM26.5102 38.3052L23.5693 40.8785H23.5693L26.5102 38.3052ZM23.6185 36.2342L21.966 39.7752L21.9808 39.7821L21.9956 39.7889L23.6185 36.2342ZM19.5935 34.7883L20.6327 31.0213H20.6327L19.5935 34.7883ZM14.9434 33.4206L13.7259 37.1338L13.7536 37.1429L13.7813 37.1515L14.9434 33.4206ZM10.2932 31.5449L8.54566 35.0401L8.56993 35.0522L8.59437 35.064L10.2932 31.5449ZM6.22923 28.6142L3.40667 31.3166L3.43604 31.3473L3.46607 31.3773L6.22923 28.6142ZM3.37662 24.0812L-0.251586 25.5325L-0.247967 25.5416L-0.244303 25.5506L3.37662 24.0812ZM3.572 11.1077L7.17086 12.6303L7.17086 12.6303L3.572 11.1077ZM13.4975 1.88553L14.9082 5.52972L14.9252 5.52315L14.9421 5.51642L13.4975 1.88553ZM26.9009 0.869537L26.2288 4.71899L26.2632 4.725L26.2977 4.73038L26.9009 0.869537ZM31.6292 2.08092L30.2783 5.74768L30.3068 5.75817L30.3354 5.76822L31.6292 2.08092ZM35.7714 3.99569L33.7811 7.35856L33.8213 7.38235L33.8621 7.40517L35.7714 3.99569ZM39.2492 6.49661L42.6948 8.34008L44.1206 5.67521L41.8997 3.62523L39.2492 6.49661ZM32.6531 10.5606C32.5542 10.7188 32.4807 10.8108 32.4404 10.8562C32.4005 10.9011 32.4051 10.8868 32.4628 10.846L36.9698 17.2309C37.9603 16.5317 38.7075 15.6195 39.2805 14.7028L32.6531 10.5606ZM32.3717 10.9123C32.8097 10.5838 33.161 10.5997 33.0751 10.5997V18.4151C34.3438 18.4151 35.7893 18.1183 37.0609 17.1646L32.3717 10.9123ZM33.0751 10.5997C33.174 10.5997 33.2169 10.6149 33.1909 10.6076C33.1624 10.5997 33.0734 10.5708 32.92 10.4912L29.3224 17.4294C30.4094 17.993 31.681 18.4151 33.0751 18.4151V10.5997ZM33.074 10.5755C32.3461 10.1556 31.5216 9.70248 30.605 9.21719L26.9483 16.1243C27.8031 16.5769 28.5417 16.9835 29.1685 17.3451L33.074 10.5755ZM30.6478 9.24022C29.5395 8.63569 28.3211 8.12934 27.0165 7.70459L24.597 15.136C25.5328 15.4407 26.2943 15.768 26.9054 16.1013L30.6478 9.24022ZM27.0939 7.73066C25.4841 7.16912 23.7601 6.92646 21.9772 6.92646V14.7418C23.06 14.7418 23.889 14.89 24.5197 15.11L27.0939 7.73066ZM21.9772 6.92646C19.0337 6.92646 16.087 7.54848 13.8595 9.49159L18.9971 15.381C19.2185 15.1879 19.971 14.7418 21.9772 14.7418V6.92646ZM13.8642 9.48754C11.6943 11.3744 10.7231 13.9334 10.7231 16.6957H18.5385C18.5385 15.8629 18.7656 15.5824 18.9925 15.3851L13.8642 9.48754ZM10.7231 16.6957C10.7231 18.7531 11.4134 20.7087 12.9137 22.2626L18.5361 16.834C18.5263 16.8239 18.5285 16.8244 18.5357 16.8358C18.5432 16.8473 18.5493 16.8598 18.5528 16.8691C18.5562 16.878 18.5532 16.8733 18.5491 16.8492C18.5447 16.8243 18.5385 16.7749 18.5385 16.6957H10.7231ZM12.9137 22.2626C14.0427 23.4318 15.4163 24.3392 16.925 25.0432L20.23 17.9611C19.3941 17.571 18.8661 17.1758 18.5361 16.834L12.9137 22.2626ZM16.9547 25.0569C18.3304 25.685 19.8442 26.2496 21.4833 26.7582L23.7998 19.2941C22.4169 18.8649 21.2214 18.4135 20.2004 17.9474L16.9547 25.0569ZM21.5596 26.7811C23.0101 27.199 24.4918 27.6803 26.005 28.2261L28.6565 20.8742C26.9915 20.2737 25.347 19.739 23.7235 19.2712L21.5596 26.7811ZM26.0588 28.245C27.4843 28.7358 28.8755 29.3202 30.2334 29.9991L33.7285 23.0089C32.0644 22.1768 30.3555 21.4587 28.6028 20.8553L26.0588 28.245ZM30.2572 30.011C31.4221 30.5836 32.4227 31.2998 33.2818 32.1588L38.8081 26.6325C37.3225 25.147 35.6138 23.9354 33.7047 22.997L30.2572 30.011ZM33.3123 32.189C34.1119 32.9713 34.7996 33.9676 35.3477 35.2401L42.5255 32.1482C41.6148 30.0341 40.3746 28.1647 38.7776 26.6023L33.3123 32.189ZM35.3566 35.2604C35.8151 36.3086 36.1231 37.7636 36.1231 39.7511H43.9385C43.9385 36.9972 43.517 34.4143 42.5167 32.1279L35.3566 35.2604ZM36.1231 39.7511C36.1231 41.9209 35.7492 43.8894 35.032 45.6925L42.2941 48.5808C43.4006 45.7988 43.9385 42.8436 43.9385 39.7511H36.1231ZM35.032 45.6925C34.319 47.4853 33.2917 49.0341 31.9349 50.3706L37.4195 55.9383C39.5536 53.8361 41.1836 51.373 42.2941 48.5808L35.032 45.6925ZM31.9352 50.3703C30.6436 51.6424 28.9786 52.7129 26.8559 53.536L29.6814 60.8228C32.6647 59.666 35.2721 58.0532 37.4192 55.9386L31.9352 50.3703ZM26.8759 53.5283C24.8709 54.2931 22.4773 54.7175 19.6326 54.7175V62.5329C23.2487 62.5329 26.6124 61.9935 29.6613 60.8305L26.8759 53.5283ZM19.6326 54.7175C18.1306 54.7175 16.5734 54.563 14.9569 54.2443L13.4449 61.912C15.5277 62.3227 17.5917 62.5329 19.6326 62.5329V54.7175ZM14.9673 54.2463C13.3517 53.9232 11.787 53.4742 10.2707 52.8998L7.50225 60.2085C9.42466 60.9367 11.4029 61.5036 13.4346 61.91L14.9673 54.2463ZM10.3187 52.9184C8.79315 52.3174 7.37519 51.6185 6.05989 50.8247L2.02196 57.5162C3.72861 58.5461 5.541 59.4362 7.4542 60.1899L10.3187 52.9184ZM6.05989 50.8247C4.78932 50.058 3.73022 49.2322 2.85731 48.3593L-2.669 53.8856C-1.3015 55.2531 0.270574 56.4593 2.02196 57.5162L6.05989 50.8247ZM3.39608 53.2123L7.30377 47.0381L0.699924 42.8585L-3.20777 49.0326L3.39608 53.2123ZM7.19431 47.2018C7.18943 47.2087 7.18346 47.2163 7.17665 47.224C7.16984 47.2317 7.16352 47.2379 7.15843 47.2425C7.15337 47.2471 7.15087 47.2488 7.15203 47.248C7.15325 47.2471 7.15919 47.2429 7.17113 47.236L3.25534 40.4723C2.29969 41.0256 1.46509 41.7659 0.809387 42.6948L7.19431 47.2018ZM7.22372 47.205C7.19764 47.2206 7.14634 47.2463 7.07446 47.2663C7.00224 47.2865 6.93812 47.2929 6.89354 47.2929V39.4775C5.57568 39.4775 4.32207 39.8317 3.20274 40.5033L7.22372 47.205ZM6.89354 47.2929C6.86483 47.2929 6.85818 47.2874 6.88615 47.2962C6.91821 47.3064 7.00497 47.3388 7.14734 47.429L11.329 40.8264C10.0385 40.0091 8.54213 39.4775 6.89354 39.4775V47.2929ZM7.19614 47.4594C8.0111 47.9589 8.91619 48.5098 9.91105 49.112L13.9579 42.4259C12.9728 41.8297 12.0804 41.2864 11.2802 40.796L7.19614 47.4594ZM9.94941 49.1349C11.1865 49.8644 12.5509 50.5031 14.0242 51.063L16.8004 43.7573C15.6686 43.3272 14.7145 42.8718 13.9195 42.403L9.94941 49.1349ZM14.0242 51.063C15.8723 51.7653 17.9007 52.0603 20.0234 52.0603V44.2449C18.6031 44.2449 17.5575 44.045 16.8004 43.7573L14.0242 51.063ZM20.0234 52.0603C22.9365 52.0603 25.7696 51.4317 28.023 49.6643L23.1998 43.5148C22.796 43.8315 21.9037 44.2449 20.0234 44.2449V52.0603ZM28.0598 49.6351C30.6043 47.5895 31.512 44.5891 31.512 41.5486H23.6966C23.6966 43.0932 23.2757 43.4534 23.163 43.544L28.0598 49.6351ZM31.512 41.5486C31.512 39.4716 30.9229 37.4141 29.451 35.732L23.5693 40.8785C23.5852 40.8966 23.605 40.9221 23.6281 40.9904C23.6544 41.0685 23.6966 41.2407 23.6966 41.5486H31.512ZM29.451 35.732C28.2944 34.4101 26.8496 33.4136 25.2413 32.6794L21.9956 39.7889C22.7841 40.1489 23.2671 40.5331 23.5693 40.8785L29.451 35.732ZM25.271 32.6931C23.8647 32.0368 22.3117 31.4845 20.6327 31.0213L18.5544 38.5553C19.8974 38.9258 21.0277 39.3374 21.966 39.7752L25.271 32.6931ZM20.6327 31.0213C19.1653 30.6165 17.6563 30.1728 16.1055 29.6897L13.7813 37.1515C15.4087 37.6584 16.9998 38.1264 18.5544 38.5553L20.6327 31.0213ZM16.1608 29.7074C14.7368 29.2405 13.3476 28.6802 11.9921 28.0258L8.59437 35.064C10.2608 35.8685 11.9717 36.5586 13.7259 37.1338L16.1608 29.7074ZM12.0408 28.0498C10.9067 27.4827 9.89473 26.7533 8.99239 25.851L3.46607 31.3773C4.96045 32.8717 6.65779 34.0961 8.54566 35.0401L12.0408 28.0498ZM9.05179 25.9117C8.26684 25.0919 7.56776 24.0171 6.99753 22.6119L-0.244303 25.5506C0.644342 27.7405 1.84701 29.6876 3.40667 31.3166L9.05179 25.9117ZM7.00482 22.6299C6.51265 21.3995 6.19015 19.6848 6.19015 17.36H-1.62523C-1.62523 20.3497 -1.21829 23.1158 -0.251586 25.5325L7.00482 22.6299ZM6.19015 17.36C6.19015 15.7642 6.50814 14.1967 7.17086 12.6303L-0.0268561 9.5851C-1.08352 12.0827 -1.62523 14.6834 -1.62523 17.36H6.19015ZM7.17086 12.6303C7.81302 11.1124 8.76102 9.74134 10.0585 8.50465L4.6664 2.84734C2.62934 4.78891 1.05037 7.03893 -0.026857 9.5851L7.17086 12.6303ZM10.0585 8.50465C11.3104 7.31144 12.9023 6.3062 14.9082 5.52972L12.0869 -1.75866C9.24724 -0.659439 6.74907 0.862293 4.6664 2.84734L10.0585 8.50465ZM14.9421 5.51642C16.8236 4.76785 19.0934 4.34738 21.8209 4.34738V-3.468C18.2962 -3.468 15.017 -2.92458 12.053 -1.74535L14.9421 5.51642ZM21.8209 4.34738C23.3517 4.34738 24.8198 4.47297 26.2288 4.71899L27.5731 -2.97992C25.6996 -3.30703 23.781 -3.468 21.8209 -3.468V4.34738ZM26.2977 4.73038C27.7267 4.95367 29.051 5.29551 30.2783 5.74768L32.9801 -1.58584C31.2376 -2.22783 29.4097 -2.69357 27.5042 -2.99131L26.2977 4.73038ZM30.3354 5.76822C31.5927 6.20938 32.7385 6.7415 33.7811 7.35856L37.7617 0.632816C36.2512 -0.261097 34.6356 -1.00549 32.923 -1.60638L30.3354 5.76822ZM33.8621 7.40517C34.9184 7.99673 35.8249 8.65374 36.5987 9.368L41.8997 3.62523C40.6415 2.46379 39.2295 1.45351 37.6807 0.586203L33.8621 7.40517ZM35.8037 4.65314L32.5212 10.7882L39.4123 14.4752L42.6948 8.34008L35.8037 4.65314ZM100.022 36.2342V40.1418H105.47L103.724 34.9817L100.022 36.2342ZM94.747 20.6425L98.4486 19.3901L98.4174 19.298L98.3818 19.2077L94.747 20.6425ZM93.4966 17.1646L89.7823 18.3789L89.7858 18.3896L89.7894 18.4003L93.4966 17.1646ZM92.1679 12.788L95.9276 11.7227L91.9007 -2.48994L88.3733 11.8549L92.1679 12.788ZM90.9175 17.2037L94.6317 18.418V18.418L90.9175 17.2037ZM89.667 20.7206L86.0322 19.2858L85.9961 19.3775L85.9645 19.4709L89.667 20.7206ZM84.4307 36.2342L80.7282 34.9845L78.9874 40.1418H84.4307V36.2342ZM121.007 58V61.9077H126.71L124.651 56.5893L121.007 58ZM107.994 57.2185L105.595 60.303L105.631 60.3312L105.668 60.3585L107.994 57.2185ZM106.392 55.1474L102.691 56.4006L102.745 56.5597L102.812 56.7137L106.392 55.1474ZM103.031 45.2218L106.733 43.9687L105.834 41.3142H103.031V45.2218ZM81.3827 45.2218V41.3142H78.5802L77.6814 43.9687L81.3827 45.2218ZM78.0221 55.1474L81.6592 56.5762L81.6934 56.4892L81.7234 56.4006L78.0221 55.1474ZM76.459 57.1403L78.8733 60.213L78.8803 60.2075L78.8872 60.202L76.459 57.1403ZM63.4073 58L59.7631 56.5893L57.7044 61.9077H63.4073V58ZM85.4467 1.06492V-2.84277H82.7691L81.8025 -0.345732L85.4467 1.06492ZM98.9673 1.06492L102.612 -0.345732L101.645 -2.84277H98.9673V1.06492ZM103.724 34.9817L98.4486 19.3901L91.0454 21.8949L96.3208 37.4866L103.724 34.9817ZM98.3818 19.2077C98.0235 18.3001 97.6308 17.21 97.2037 15.9289L89.7894 18.4003C90.2481 19.7764 90.689 21.0049 91.1123 22.0772L98.3818 19.2077ZM97.2108 15.9503C96.7861 14.6513 96.3583 13.2426 95.9276 11.7227L88.4082 13.8532C88.8634 15.4595 89.3213 16.9686 89.7823 18.3789L97.2108 15.9503ZM88.3733 11.8549C88.0025 13.3629 87.6118 14.7398 87.2032 15.9894L94.6317 18.418C95.1089 16.9582 95.5519 15.3914 95.9626 13.7211L88.3733 11.8549ZM87.2032 15.9894C86.7771 17.2929 86.3866 18.3881 86.0322 19.2858L93.3018 22.1554C93.729 21.0732 94.1721 19.8238 94.6317 18.418L87.2032 15.9894ZM85.9645 19.4709L80.7282 34.9845L88.1332 37.4839L93.3695 21.9703L85.9645 19.4709ZM84.4307 40.1418H100.022V32.3265H84.4307V40.1418ZM121.007 54.0923H110.769V61.9077H121.007V54.0923ZM110.769 54.0923C110.487 54.0923 110.334 54.0599 110.275 54.0433C110.224 54.029 110.255 54.0304 110.32 54.0784L105.668 60.3585C107.226 61.5127 109.043 61.9077 110.769 61.9077V54.0923ZM110.393 54.1339C110.215 53.9953 110.081 53.8313 109.972 53.5811L102.812 56.7137C103.432 58.1307 104.366 59.3474 105.595 60.303L110.393 54.1339ZM110.093 53.8942L106.733 43.9687L99.33 46.475L102.691 56.4006L110.093 53.8942ZM103.031 41.3142H81.3827V49.1295H103.031V41.3142ZM77.6814 43.9687L74.3208 53.8942L81.7234 56.4006L85.084 46.475L77.6814 43.9687ZM74.385 53.7185C74.4024 53.6742 74.37 53.8096 74.0308 54.0786L78.8872 60.202C80.059 59.2726 81.0687 58.0794 81.6592 56.5762L74.385 53.7185ZM74.0448 54.0676C74.0625 54.0536 74.0758 54.0511 74.0565 54.0572C74.03 54.0655 73.9297 54.0923 73.7236 54.0923V61.9077C75.5299 61.9077 77.337 61.4201 78.8733 60.213L74.0448 54.0676ZM73.7236 54.0923H63.4073V61.9077H73.7236V54.0923ZM67.0515 59.4107L89.0909 2.47558L81.8025 -0.345732L59.7631 56.5893L67.0515 59.4107ZM85.4467 4.97261H98.9673V-2.84277H85.4467V4.97261ZM95.3231 2.47558L117.363 59.4107L124.651 56.5893L102.612 -0.345732L95.3231 2.47558ZM183.251 47.4492H187.159V43.5415H183.251V47.4492ZM183.251 58V61.9077H187.159V58H183.251ZM148.942 58H145.034V61.9077H148.942V58ZM148.942 1.06492V-2.84277H145.034V1.06492H148.942ZM162.15 1.06492H166.058V-2.84277H162.15V1.06492ZM162.15 47.4492H158.242V51.3569H162.15V47.4492ZM179.344 47.4492V58H187.159V47.4492H179.344ZM183.251 54.0923H148.942V61.9077H183.251V54.0923ZM152.85 58V1.06492H145.034V58H152.85ZM148.942 4.97261H162.15V-2.84277H148.942V4.97261ZM158.242 1.06492V47.4492H166.058V1.06492H158.242ZM162.15 51.3569H183.251V43.5415H162.15V51.3569ZM226.735 11.2249V7.31723H222.828V11.2249H226.735ZM226.735 24.5111H222.828V28.4188H226.735V24.5111ZM244.633 24.5111H248.54V20.6034H244.633V24.5111ZM244.633 34.2803V38.188H248.54V34.2803H244.633ZM226.735 34.2803V30.3726H222.828V34.2803H226.735ZM226.735 47.84H222.828V51.7477H226.735V47.84ZM250.103 47.84H254.011V43.9323H250.103V47.84ZM250.103 58V61.9077H254.011V58H250.103ZM213.449 58H209.542V61.9077H213.449V58ZM213.449 1.06492V-2.84277H209.542V1.06492H213.449ZM250.103 1.06492H254.011V-2.84277H250.103V1.06492ZM250.103 11.2249V15.1326H254.011V11.2249H250.103ZM222.828 11.2249V24.5111H230.643V11.2249H222.828ZM226.735 28.4188H244.633V20.6034H226.735V28.4188ZM240.725 24.5111V34.2803H248.54V24.5111H240.725ZM244.633 30.3726H226.735V38.188H244.633V30.3726ZM222.828 34.2803V47.84H230.643V34.2803H222.828ZM226.735 51.7477H250.103V43.9323H226.735V51.7477ZM246.196 47.84V58H254.011V47.84H246.196ZM250.103 54.0923H213.449V61.9077H250.103V54.0923ZM217.357 58V1.06492H209.542V58H217.357ZM213.449 4.97261H250.103V-2.84277H213.449V4.97261ZM246.196 1.06492V11.2249H254.011V1.06492H246.196ZM250.103 7.31723H226.735V15.1326H250.103V7.31723Z" fill="white" fill-opacity="0.1"/>
</svg>
